
<svg width="800" height="800" viewBox="0 0 800 800" xmlns="http://www.w3.org/2000/svg">
  <rect width="100%" height="100%" fill="#050505" />
  
  <!-- Particles -->
  <circle cx="389.5378151260504" cy="401.26383193271596" r="4" fill="#00B8D9" opacity="0.2789915966386556" /><circle cx="408.82360563564407" cy="385.52511028437965" r="7.686761559263687" fill="#00B8D9" opacity="0.2789915966386556" /><circle cx="390.73506925782044" cy="394.5600154116493" r="4.228872677398613" fill="#00B8D9" opacity="0.2789915966386556" /><circle cx="401.2182709711481" cy="381.20225277352324" r="6.232890354323899" fill="#00B8D9" opacity="0.2789915966386556" /><circle cx="397.3579575521421" cy="399.54784326239667" r="5.494934857357293" fill="#00B8D9" opacity="0.2789915966386556" /><circle cx="399.0265881963434" cy="379.9738461995403" r="5.813918064843165" fill="#00B8D9" opacity="0.2789915966386556" /><circle cx="402.6382862583002" cy="384.1225062744263" r="6.504347091948148" fill="#00B8D9" opacity="0.2789915966386556" /><circle cx="393.0024749921079" cy="408.645190534121" r="4.662320520579669" fill="#00B8D9" opacity="0.2789915966386556" /><circle cx="375.4998849304019" cy="377.83198939296886" r="6.683556133786624" fill="#00B8D9" opacity="0.2789915966386556" /><circle cx="379.9047489994529" cy="386.7771020380119" r="5.841501797694946" fill="#00B8D9" opacity="0.2789915966386556" /><circle cx="388.9417290684302" cy="368.51811856036795" r="4.113950587721774" fill="#00B8D9" opacity="0.2789915966386556" /><circle cx="385.79631956482683" cy="391.3873773763869" r="4.715241721743951" fill="#00B8D9" opacity="0.2789915966386556" /><circle cx="372.3598228503275" cy="371.9104405736894" r="7.283825029415311" fill="#00B8D9" opacity="0.2789915966386556" /><circle cx="389.43678814472656" cy="406.94943092592104" r="4.019312788397656" fill="#00B8D9" opacity="0.2789915966386556" /><circle cx="385.6882582428691" cy="373.03807504037826" r="4.735899227467598" fill="#00B8D9" opacity="0.2789915966386556" /><circle cx="398.78254495748604" cy="413.8606043966927" r="5.767265622394916" fill="#00B8D9" opacity="0.2789915966386556" /><circle cx="408.9321702064565" cy="406.33354705741704" r="7.707515268382849" fill="#00B8D9" opacity="0.2789915966386556" /><circle cx="398.6230846965625" cy="363.39633619863275" r="5.736782456049696" fill="#00B8D9" opacity="0.2789915966386556" /><circle cx="403.0170064300873" cy="412.7783693502691" r="6.576745004305849" fill="#00B8D9" opacity="0.2789915966386556" /><circle cx="396.28892922747116" cy="384.8151525834251" r="5.290574422600912" fill="#00B8D9" opacity="0.2789915966386556" />
  
  <!-- Top Half -->
  <path d="M320,386.0504201680672 L320,286.0504201680672 A80,80 0 0,1 480,286.0504201680672 L480,386.0504201680672 Z" fill="url(#teal-grad)" />
  
  <!-- Bottom Half -->
  <path d="M320,413.94957983193274 L320,513.9495798319327 A80,80 0 0,0 480,513.9495798319327 L480,413.94957983193274 Z" fill="url(#green-grad)" />
  
  <!-- Outer glowing rings when exploded -->
  <circle cx="400" cy="400" r="202.78991596638656" stroke="#2ED9A0" stroke-width="2" fill="none" stroke-dasharray="10 10" opacity="0.0697478991596639" />

  <defs>
    <linearGradient id="teal-grad" x1="0%" y1="0%" x2="0%" y2="100%">
      <stop offset="0%" stop-color="#00B8D9" />
      <stop offset="100%" stop-color="#006c80" />
    </linearGradient>
    <linearGradient id="green-grad" x1="0%" y1="0%" x2="0%" y2="100%">
      <stop offset="0%" stop-color="#197a5a" />
      <stop offset="100%" stop-color="#2ED9A0" />
    </linearGradient>
  </defs>
</svg>