
<svg width="800" height="800" viewBox="0 0 800 800" xmlns="http://www.w3.org/2000/svg">
  <rect width="100%" height="100%" fill="#050505" />
  
  <!-- Particles -->
  <circle cx="283.65546218487395" cy="414.05442016743154" r="4" fill="#00B8D9" opacity="1" /><circle cx="498.1227470084275" cy="239.03225051183617" r="7.686761559263687" fill="#00B8D9" opacity="1" /><circle cx="296.9695051201" cy="339.504749698221" r="4.228872677398613" fill="#00B8D9" opacity="1" /><circle cx="413.5477603177075" cy="190.95999168628902" r="6.232890354323899" fill="#00B8D9" opacity="1" /><circle cx="370.6192147063518" cy="394.9717991709897" r="5.494934857357293" fill="#00B8D9" opacity="1" /><circle cx="389.1751916292169" cy="177.29951858043017" r="5.813918064843165" fill="#00B8D9" opacity="1" /><circle cx="429.33901465555505" cy="223.43461796741565" r="6.504347091948148" fill="#00B8D9" opacity="1" /><circle cx="322.1841496110316" cy="496.13868509630936" r="4.662320520579669" fill="#00B8D9" opacity="1" /><circle cx="127.54691314169833" cy="153.481038671208" r="6.683556133786624" fill="#00B8D9" opacity="1" /><circle cx="176.53112441560287" cy="252.95500218174658" r="5.841501797694946" fill="#00B8D9" opacity="1" /><circle cx="277.02669795374806" cy="49.90630640023676" r="4.113950587721774" fill="#00B8D9" opacity="1" /><circle cx="242.0482284136765" cy="304.223485763917" r="4.715241721743951" fill="#00B8D9" opacity="1" /><circle cx="92.62790952834041" cy="87.63056204235329" r="7.283825029415311" fill="#00B8D9" opacity="1" /><circle cx="282.53199346485064" cy="477.2810210195796" r="4.019312788397656" fill="#00B8D9" opacity="1" /><circle cx="240.84653443576096" cy="100.1704007502305" r="4.735899227467598" fill="#00B8D9" opacity="1" /><circle cx="386.46131320192274" cy="554.1366007005702" r="5.767265622394916" fill="#00B8D9" opacity="1" /><circle cx="499.33003735613676" cy="470.43209559031203" r="7.707515268382849" fill="#00B8D9" opacity="1" /><circle cx="384.6880382521346" cy="-7.050381791107725" r="5.736782456049696" fill="#00B8D9" opacity="1" /><circle cx="433.5505654815734" cy="542.1016254252816" r="6.576745004305849" fill="#00B8D9" opacity="1" /><circle cx="358.7311045416371" cy="231.1371787289327" r="5.290574422600912" fill="#00B8D9" opacity="1" />
  
  <!-- Top Half -->
  <path d="M320,244.87394957983196 L320,144.87394957983196 A80,80 0 0,1 480,144.87394957983196 L480,244.87394957983196 Z" fill="url(#teal-grad)" />
  
  <!-- Bottom Half -->
  <path d="M320,555.126050420168 L320,655.126050420168 A80,80 0 0,0 480,655.126050420168 L480,555.126050420168 Z" fill="url(#green-grad)" />
  
  <!-- Outer glowing rings when exploded -->
  <circle cx="400" cy="400" r="231.0252100840336" stroke="#2ED9A0" stroke-width="2" fill="none" stroke-dasharray="10 10" opacity="0.7756302521008402" />

  <defs>
    <linearGradient id="teal-grad" x1="0%" y1="0%" x2="0%" y2="100%">
      <stop offset="0%" stop-color="#00B8D9" />
      <stop offset="100%" stop-color="#006c80" />
    </linearGradient>
    <linearGradient id="green-grad" x1="0%" y1="0%" x2="0%" y2="100%">
      <stop offset="0%" stop-color="#197a5a" />
      <stop offset="100%" stop-color="#2ED9A0" />
    </linearGradient>
  </defs>
</svg>