
<svg width="800" height="800" viewBox="0 0 800 800" xmlns="http://www.w3.org/2000/svg">
  <rect width="100%" height="100%" fill="#050505" />
  
  <!-- Particles -->
  <circle cx="316.42857142857144" cy="410.09542857097193" r="4" fill="#00B8D9" opacity="1" /><circle cx="470.4825365835183" cy="284.3752785366711" r="7.686761559263687" fill="#00B8D9" opacity="1" /><circle cx="325.9921797341563" cy="356.5456652761869" r="4.228872677398613" fill="#00B8D9" opacity="1" /><circle cx="409.7314898056772" cy="249.84450107043295" r="6.232890354323899" fill="#00B8D9" opacity="1" /><circle cx="378.8954922538583" cy="396.3881937707109" r="5.494934857357293" fill="#00B8D9" opacity="1" /><circle cx="392.22443342380365" cy="240.0320485577738" r="5.813918064843165" fill="#00B8D9" opacity="1" /><circle cx="421.07450348497616" cy="273.171345300538" r="6.504347091948148" fill="#00B8D9" opacity="1" /><circle cx="344.1041074670791" cy="469.0573653508701" r="4.662320520579669" fill="#00B8D9" opacity="1" /><circle cx="204.29426155248754" cy="222.9229996088959" r="6.683556133786624" fill="#00B8D9" opacity="1" /><circle cx="239.48010345346123" cy="294.37612832773345" r="5.841501797694946" fill="#00B8D9" opacity="1" /><circle cx="311.6670647273402" cy="148.52424825932502" r="4.113950587721774" fill="#00B8D9" opacity="1" /><circle cx="286.54168519855637" cy="331.2027855487291" r="4.715241721743951" fill="#00B8D9" opacity="1" /><circle cx="179.21159698514595" cy="175.6219530163383" r="7.283825029415311" fill="#00B8D9" opacity="1" /><circle cx="315.62157277052654" cy="455.5117193239234" r="4.019312788397656" fill="#00B8D9" opacity="1" /><circle cx="285.67849656653254" cy="184.62944279241913" r="4.735899227467598" fill="#00B8D9" opacity="1" /><circle cx="390.2750277929304" cy="510.71783993984616" r="5.767265622394916" fill="#00B8D9" opacity="1" /><circle cx="471.34974514314047" cy="450.5920686634636" r="7.707515268382849" fill="#00B8D9" opacity="1" /><circle cx="389.00126691350516" cy="107.6116975866691" r="5.736782456049696" fill="#00B8D9" opacity="1" /><circle cx="424.0997019656372" cy="502.07299854492055" r="6.576745004305849" fill="#00B8D9" opacity="1" /><circle cx="370.3561455158238" cy="278.7041706362756" r="5.290574422600912" fill="#00B8D9" opacity="1" />
  
  <!-- Top Half -->
  <path d="M320,288.57142857142856 L320,188.57142857142858 A80,80 0 0,1 480,188.57142857142858 L480,288.57142857142856 Z" fill="url(#teal-grad)" />
  
  <!-- Bottom Half -->
  <path d="M320,511.42857142857144 L320,611.4285714285714 A80,80 0 0,0 480,611.4285714285714 L480,511.42857142857144 Z" fill="url(#green-grad)" />
  
  <!-- Outer glowing rings when exploded -->
  <circle cx="400" cy="400" r="222.28571428571428" stroke="#2ED9A0" stroke-width="2" fill="none" stroke-dasharray="10 10" opacity="0.557142857142857" />

  <defs>
    <linearGradient id="teal-grad" x1="0%" y1="0%" x2="0%" y2="100%">
      <stop offset="0%" stop-color="#00B8D9" />
      <stop offset="100%" stop-color="#006c80" />
    </linearGradient>
    <linearGradient id="green-grad" x1="0%" y1="0%" x2="0%" y2="100%">
      <stop offset="0%" stop-color="#197a5a" />
      <stop offset="100%" stop-color="#2ED9A0" />
    </linearGradient>
  </defs>
</svg>