
<svg width="800" height="800" viewBox="0 0 800 800" xmlns="http://www.w3.org/2000/svg">
  <rect width="100%" height="100%" fill="#050505" />
  
  <!-- Particles -->
  <circle cx="374.4117647058824" cy="403.09105882338963" r="4" fill="#00B8D9" opacity="0.6823529411764706" /><circle cx="421.580625831756" cy="364.597558888302" r="7.686761559263687" fill="#00B8D9" opacity="0.6823529411764706" /><circle cx="377.33998866671755" cy="386.69497745258815" r="4.228872677398613" fill="#00B8D9" opacity="0.6823529411764706" /><circle cx="402.9796265920852" cy="354.02478690391837" r="6.232890354323899" fill="#00B8D9" opacity="0.6823529411764706" /><circle cx="393.5381371456007" cy="398.89412267791" r="5.494934857357293" fill="#00B8D9" opacity="0.6823529411764706" /><circle cx="397.6192458296111" cy="351.0203708253817" r="5.813918064843165" fill="#00B8D9" opacity="0.6823529411764706" /><circle cx="406.4526760293366" cy="361.1670936591391" r="6.504347091948148" fill="#00B8D9" opacity="0.6823529411764706" /><circle cx="382.8855713662399" cy="421.1442611858622" r="4.662320520579669" fill="#00B8D9" opacity="0.6823529411764706" /><circle cx="340.07803181772994" cy="345.7818535755745" r="6.683556133786624" fill="#00B8D9" opacity="0.6823529411764706" /><circle cx="350.8513740589029" cy="367.6596592014025" r="5.841501797694946" fill="#00B8D9" opacity="0.6823529411764706" /><circle cx="372.9538674806185" cy="323.00214539463497" r="4.113950587721774" fill="#00B8D9" opacity="0.6823529411764706" /><circle cx="365.2608779718053" cy="378.9353928603198" r="4.715241721743951" fill="#00B8D9" opacity="0.6823529411764706" /><circle cx="332.39812094718644" cy="331.2990293549271" r="7.283825029415311" fill="#00B8D9" opacity="0.6823529411764706" /><circle cx="374.16467461903" cy="416.99680093930084" r="4.019312788397656" fill="#00B8D9" opacity="0.6823529411764706" /><circle cx="364.9965834132822" cy="334.0569787132143" r="4.735899227467598" fill="#00B8D9" opacity="0.6823529411764706" /><circle cx="397.0223689924055" cy="433.9000324401037" r="5.767265622394916" fill="#00B8D9" opacity="0.6823529411764706" /><circle cx="421.8461512278394" cy="415.4904825621163" r="7.707515268382849" fill="#00B8D9" opacity="0.6823529411764706" /><circle cx="396.63236377592995" cy="310.4753764858127" r="5.736782456049696" fill="#00B8D9" opacity="0.6823529411764706" /><circle cx="407.3789434374425" cy="431.253120218128" r="6.576745004305849" fill="#00B8D9" opacity="0.6823529411764706" /><circle cx="390.92352570092345" cy="362.86115631849765" r="5.290574422600912" fill="#00B8D9" opacity="0.6823529411764706" />
  
  <!-- Top Half -->
  <path d="M320,365.88235294117646 L320,265.88235294117646 A80,80 0 0,1 480,265.88235294117646 L480,365.88235294117646 Z" fill="url(#teal-grad)" />
  
  <!-- Bottom Half -->
  <path d="M320,434.11764705882354 L320,534.1176470588235 A80,80 0 0,0 480,534.1176470588235 L480,434.11764705882354 Z" fill="url(#green-grad)" />
  
  <!-- Outer glowing rings when exploded -->
  <circle cx="400" cy="400" r="206.8235294117647" stroke="#2ED9A0" stroke-width="2" fill="none" stroke-dasharray="10 10" opacity="0.17058823529411765" />

  <defs>
    <linearGradient id="teal-grad" x1="0%" y1="0%" x2="0%" y2="100%">
      <stop offset="0%" stop-color="#00B8D9" />
      <stop offset="100%" stop-color="#006c80" />
    </linearGradient>
    <linearGradient id="green-grad" x1="0%" y1="0%" x2="0%" y2="100%">
      <stop offset="0%" stop-color="#197a5a" />
      <stop offset="100%" stop-color="#2ED9A0" />
    </linearGradient>
  </defs>
</svg>