
<svg width="800" height="800" viewBox="0 0 800 800" xmlns="http://www.w3.org/2000/svg">
  <rect width="100%" height="100%" fill="#050505" />
  
  <!-- Particles -->
  <circle cx="366.38655462184875" cy="404.060504201497" r="4" fill="#00B8D9" opacity="0.896358543417366" /><circle cx="428.34893376913755" cy="353.49433023093866" r="7.686761559263687" fill="#00B8D9" opacity="0.896358543417366" /><circle cx="370.23315424199353" cy="382.5221378687529" r="4.228872677398613" fill="#00B8D9" opacity="0.896358543417366" /><circle cx="403.9141236020823" cy="339.60563140087805" r="6.232890354323899" fill="#00B8D9" opacity="0.896358543417366" /><circle cx="391.5115102076856" cy="398.54728759002955" r="5.494934857357293" fill="#00B8D9" opacity="0.896358543417366" /><circle cx="396.8725725183725" cy="335.658943612981" r="5.813918064843165" fill="#00B8D9" opacity="0.896358543417366" /><circle cx="408.47642171341425" cy="348.9879719660284" r="6.504347091948148" fill="#00B8D9" opacity="0.896358543417366" /><circle cx="377.5179919425155" cy="427.77571255942485" r="4.662320520579669" fill="#00B8D9" opacity="0.896358543417366" /><circle cx="321.2847708607291" cy="328.77747596134583" r="6.683556133786624" fill="#00B8D9" opacity="0.896358543417366" /><circle cx="335.4369445765556" cy="357.51679369642375" r="5.841501797694946" fill="#00B8D9" opacity="0.896358543417366" /><circle cx="364.47141869375173" cy="298.8533929650378" r="4.113950587721774" fill="#00B8D9" opacity="0.896358543417366" /><circle cx="354.3656853488412" cy="372.32892329762865" r="4.715241721743951" fill="#00B8D9" opacity="0.896358543417366" /><circle cx="311.19621799302007" cy="309.75241951386164" r="7.283825029415311" fill="#00B8D9" opacity="0.896358543417366" /><circle cx="366.06196994289655" cy="422.3274889186217" r="4.019312788397656" fill="#00B8D9" opacity="0.896358543417366" /><circle cx="354.0185003786959" cy="313.37534149519126" r="4.735899227467598" fill="#00B8D9" opacity="0.896358543417366" /><circle cx="396.0884978553768" cy="444.5320623186912" r="5.767265622394916" fill="#00B8D9" opacity="0.896358543417366" /><circle cx="428.69773560307306" cy="420.3487455659984" r="7.707515268382849" fill="#00B8D9" opacity="0.896358543417366" /><circle cx="395.57617573192766" cy="282.3978673048444" r="5.736782456049696" fill="#00B8D9" opacity="0.896358543417366" /><circle cx="409.6931933496781" cy="441.05500192857534" r="6.576745004305849" fill="#00B8D9" opacity="0.896358543417366" /><circle cx="388.07688105211616" cy="351.2133416334945" r="5.290574422600912" fill="#00B8D9" opacity="0.896358543417366" />
  
  <!-- Top Half -->
  <path d="M320,355.1820728291317 L320,255.1820728291317 A80,80 0 0,1 480,255.1820728291317 L480,355.1820728291317 Z" fill="url(#teal-grad)" />
  
  <!-- Bottom Half -->
  <path d="M320,444.8179271708683 L320,544.8179271708683 A80,80 0 0,0 480,544.8179271708683 L480,444.8179271708683 Z" fill="url(#green-grad)" />
  
  <!-- Outer glowing rings when exploded -->
  <circle cx="400" cy="400" r="208.96358543417367" stroke="#2ED9A0" stroke-width="2" fill="none" stroke-dasharray="10 10" opacity="0.2240896358543415" />

  <defs>
    <linearGradient id="teal-grad" x1="0%" y1="0%" x2="0%" y2="100%">
      <stop offset="0%" stop-color="#00B8D9" />
      <stop offset="100%" stop-color="#006c80" />
    </linearGradient>
    <linearGradient id="green-grad" x1="0%" y1="0%" x2="0%" y2="100%">
      <stop offset="0%" stop-color="#197a5a" />
      <stop offset="100%" stop-color="#2ED9A0" />
    </linearGradient>
  </defs>
</svg>