
<svg width="800" height="800" viewBox="0 0 800 800" xmlns="http://www.w3.org/2000/svg">
  <rect width="100%" height="100%" fill="#050505" />
  
  <!-- Particles -->
  <circle cx="384.4957983193277" cy="401.8729075629405" r="4" fill="#00B8D9" opacity="0.4134453781512606" /><circle cx="413.0759457010147" cy="378.5492598190204" r="7.686761559263687" fill="#00B8D9" opacity="0.4134453781512606" /><circle cx="386.2700423941195" cy="391.9383360919623" r="4.228872677398613" fill="#00B8D9" opacity="0.4134453781512606" /><circle cx="401.8053895114605" cy="372.14309748365497" r="6.232890354323899" fill="#00B8D9" opacity="0.4134453781512606" /><circle cx="396.084684083295" cy="399.32993640090115" r="5.494934857357293" fill="#00B8D9" opacity="0.4134453781512606" /><circle cx="398.55747407409933" cy="370.3226877414874" r="5.813918064843165" fill="#00B8D9" opacity="0.4134453781512606" /><circle cx="403.90974951531234" cy="376.47070206933057" r="6.504347091948148" fill="#00B8D9" opacity="0.4134453781512606" /><circle cx="389.63017378348525" cy="412.8115474180347" r="4.662320520579669" fill="#00B8D9" opacity="0.4134453781512606" /><circle cx="363.6926005595112" cy="367.1486107871707" r="6.683556133786624" fill="#00B8D9" opacity="0.4134453781512606" /><circle cx="370.2202906859362" cy="380.40462109247545" r="5.841501797694946" fill="#00B8D9" opacity="0.4134453781512606" /><circle cx="383.612441872493" cy="353.3461275051236" r="4.113950587721774" fill="#00B8D9" opacity="0.4134453781512606" /><circle cx="378.951172367153" cy="387.2367158710312" r="4.715241721743951" fill="#00B8D9" opacity="0.4134453781512606" /><circle cx="359.0392555492805" cy="358.37330350076866" r="7.283825029415311" fill="#00B8D9" opacity="0.4134453781512606" /><circle cx="384.34608363616104" cy="410.2985542637143" r="4.019312788397656" fill="#00B8D9" opacity="0.4134453781512606" /><circle cx="378.7910332996735" cy="360.04437626465693" r="4.735899227467598" fill="#00B8D9" opacity="0.4134453781512606" /><circle cx="398.19581963579253" cy="420.54041374449633" r="5.767265622394916" fill="#00B8D9" opacity="0.4134453781512606" /><circle cx="413.2368305469175" cy="409.3858588923168" r="7.707515268382849" fill="#00B8D9" opacity="0.4134453781512606" /><circle cx="397.95951105635163" cy="345.7560162943594" r="5.736782456049696" fill="#00B8D9" opacity="0.4134453781512606" /><circle cx="404.47098543253907" cy="418.9366196395554" r="6.576745004305849" fill="#00B8D9" opacity="0.4134453781512606" /><circle cx="394.5004613852886" cy="377.4971538284493" r="5.290574422600912" fill="#00B8D9" opacity="0.4134453781512606" />
  
  <!-- Top Half -->
  <path d="M320,379.327731092437 L320,279.327731092437 A80,80 0 0,1 480,279.327731092437 L480,379.327731092437 Z" fill="url(#teal-grad)" />
  
  <!-- Bottom Half -->
  <path d="M320,420.6722689075631 L320,520.6722689075631 A80,80 0 0,0 480,520.6722689075631 L480,420.6722689075631 Z" fill="url(#green-grad)" />
  
  <!-- Outer glowing rings when exploded -->
  <circle cx="400" cy="400" r="204.1344537815126" stroke="#2ED9A0" stroke-width="2" fill="none" stroke-dasharray="10 10" opacity="0.10336134453781515" />

  <defs>
    <linearGradient id="teal-grad" x1="0%" y1="0%" x2="0%" y2="100%">
      <stop offset="0%" stop-color="#00B8D9" />
      <stop offset="100%" stop-color="#006c80" />
    </linearGradient>
    <linearGradient id="green-grad" x1="0%" y1="0%" x2="0%" y2="100%">
      <stop offset="0%" stop-color="#197a5a" />
      <stop offset="100%" stop-color="#2ED9A0" />
    </linearGradient>
  </defs>
</svg>